<?xml version="1.0" standalone="no"?>
<!DOCTYPE svg PUBLIC "-//W3C//DTD SVG 20010904//EN"
 "http://www.w3.org/TR/2001/REC-SVG-20010904/DTD/svg10.dtd">
<svg version="1.0" xmlns="http://www.w3.org/2000/svg"
 width="346.000000pt" height="346.000000pt" viewBox="0 0 346.000000 346.000000"
 preserveAspectRatio="xMidYMid meet">
<metadata>
Created by potrace 1.11, written by Peter Selinger 2001-2013
</metadata>
<g transform="translate(0.000000,346.000000) scale(0.100000,-0.100000)"
fill="#000000" stroke="none">
<path d="M1535 2994 c-673 -114 -1142 -727 -1072 -1399 14 -133 33 -213 79
-330 32 -84 106 -228 120 -233 4 -2 8 -8 8 -14 0 -31 165 -213 265 -293 28
-22 52 -43 55 -47 3 -3 39 -26 81 -51 153 -90 326 -152 489 -175 63 -9 304 -8
370 1 267 38 521 167 721 369 53 53 105 110 115 127 10 17 22 31 26 31 4 0 8
4 8 9 0 6 14 30 31 55 68 102 153 317 174 441 72 437 -53 840 -355 1144 -183
184 -430 318 -658 356 -20 4 -59 10 -87 15 -75 12 -279 9 -370 -6z"/>
</g>
</svg>
